<svg width="16" height="20" viewBox="0 0 16 20" fill="none" xmlns="http://www.w3.org/2000/svg">
<path fill-rule="evenodd" clip-rule="evenodd" d="M0 1C0 0.447715 0.447715 0 1 0H10.5858C10.851 0 11.1054 0.105357 11.2929 0.292893L15.7071 4.70711C15.8946 4.89464 16 5.149 16 5.41421V19C16 19.5523 15.5523 20 15 20H1C0.447715 20 0 19.5523 0 19V1ZM4 8.75C4 8.33579 4.33579 8 4.75 8H11.25C11.6642 8 12 8.33579 12 8.75C12 9.16421 11.6642 9.5 11.25 9.5H4.75C4.33579 9.5 4 9.16421 4 8.75ZM4.75 11.5C4.33579 11.5 4 11.8358 4 12.25C4 12.6642 4.33579 13 4.75 13H8.25C8.66421 13 9 12.6642 9 12.25C9 11.8358 8.66421 11.5 8.25 11.5H4.75Z" fill="#0B1F35"/>
</svg>
