<svg width="24" height="24" viewBox="0 0 24 24" fill="none" xmlns="http://www.w3.org/2000/svg">
<path d="M16.6072 14.2416C19.4881 10.1735 18.5246 4.54028 14.4564 1.66002C10.3883 -1.22023 4.75512 -0.257392 1.87487 3.81144C-1.00539 7.87958 -0.0425484 13.5121 4.02628 16.3923C6.92993 18.4481 10.7689 18.6064 13.8315 16.7977L20.486 23.4123C21.2046 24.1687 22.4 24.1989 23.1564 23.4804C23.9128 22.7626 23.943 21.5671 23.2252 20.8108C23.2025 20.7867 23.1805 20.7647 23.1564 20.742L16.6072 14.2416ZM9.23551 14.8583C6.02078 14.8589 3.41444 12.2547 3.41238 9.03994C3.41169 5.82521 6.01596 3.21887 9.23138 3.21749C12.442 3.21612 15.0469 5.81626 15.0531 9.02686C15.0586 12.2423 12.4558 14.8528 9.23964 14.8583C9.23827 14.8583 9.23758 14.8583 9.23551 14.8583Z" fill="#152930"/>
</svg>
