<svg width="24" height="22" viewBox="0 0 24 22" fill="none" xmlns="http://www.w3.org/2000/svg">
<path d="M22.0961 2.4021C20.8537 1.05463 19.149 0.3125 17.2956 0.3125C15.9102 0.3125 14.6415 0.750488 13.5245 1.6142C12.9609 2.05017 12.4503 2.58356 12 3.20612C11.5499 2.58374 11.0391 2.05017 10.4753 1.6142C9.35852 0.750488 8.08978 0.3125 6.70441 0.3125C4.85101 0.3125 3.14612 1.05463 1.90375 2.4021C0.676208 3.73383 0 5.55316 0 7.52521C0 9.55493 0.756409 11.4129 2.38037 13.3725C3.83313 15.1254 5.92108 16.9048 8.33899 18.9653C9.16461 19.6689 10.1005 20.4666 11.0722 21.3162C11.3289 21.541 11.6583 21.6648 12 21.6648C12.3415 21.6648 12.6711 21.541 12.9274 21.3165C13.8992 20.4667 14.8356 19.6688 15.6616 18.9647C18.0791 16.9046 20.1671 15.1254 21.6198 13.3723C23.2438 11.4129 24 9.55493 24 7.52502C24 5.55316 23.3238 3.73383 22.0961 2.4021Z" fill="white"/>
</svg>
