<svg width="191" height="19" viewBox="0 0 191 19" fill="none" xmlns="http://www.w3.org/2000/svg">
<path d="M10.056 18.384C8.28 18.384 6.68 18.016 5.256 17.28C3.832 16.528 2.712 15.488 1.896 14.16C1.096 12.816 0.696 11.296 0.696 9.6C0.696 7.904 1.096 6.392 1.896 5.064C2.712 3.72 3.832 2.68 5.256 1.944C6.68 1.192 8.28 0.816 10.056 0.816C11.688 0.816 13.144 1.104 14.424 1.68C15.704 2.256 16.76 3.088 17.592 4.176L14.016 7.368C12.976 6.056 11.752 5.4 10.344 5.4C9.16 5.4 8.208 5.784 7.488 6.552C6.768 7.304 6.408 8.32 6.408 9.6C6.408 10.88 6.768 11.904 7.488 12.672C8.208 13.424 9.16 13.8 10.344 13.8C11.752 13.8 12.976 13.144 14.016 11.832L17.592 15.024C16.76 16.112 15.704 16.944 14.424 17.52C13.144 18.096 11.688 18.384 10.056 18.384ZM28.4038 18.384C26.5958 18.384 24.9718 18.008 23.5318 17.256C22.0918 16.504 20.9638 15.464 20.1478 14.136C19.3318 12.792 18.9238 11.28 18.9238 9.6C18.9238 7.92 19.3318 6.416 20.1478 5.088C20.9638 3.744 22.0918 2.696 23.5318 1.944C24.9718 1.192 26.5958 0.816 28.4038 0.816C30.2118 0.816 31.8358 1.192 33.2758 1.944C34.7158 2.696 35.8438 3.744 36.6598 5.088C37.4758 6.416 37.8838 7.92 37.8838 9.6C37.8838 11.28 37.4758 12.792 36.6598 14.136C35.8438 15.464 34.7158 16.504 33.2758 17.256C31.8358 18.008 30.2118 18.384 28.4038 18.384ZM28.4038 13.8C29.1078 13.8 29.7398 13.632 30.2998 13.296C30.8758 12.944 31.3318 12.456 31.6678 11.832C32.0038 11.192 32.1718 10.448 32.1718 9.6C32.1718 8.752 32.0038 8.016 31.6678 7.392C31.3318 6.752 30.8758 6.264 30.2998 5.928C29.7398 5.576 29.1078 5.4 28.4038 5.4C27.6998 5.4 27.0598 5.576 26.4838 5.928C25.9238 6.264 25.4758 6.752 25.1398 7.392C24.8038 8.016 24.6358 8.752 24.6358 9.6C24.6358 10.448 24.8038 11.192 25.1398 11.832C25.4758 12.456 25.9238 12.944 26.4838 13.296C27.0598 13.632 27.6998 13.8 28.4038 13.8ZM55.6596 18L55.6116 10.344L51.9636 16.488H49.4676L45.8196 10.608V18H40.6596V1.2H45.3156L50.7876 10.152L56.1156 1.2H60.7716L60.8196 18H55.6596ZM78.246 13.728V18H64.278V1.2H77.934V5.472H69.846V7.44H76.95V11.52H69.846V13.728H78.246ZM97.7064 9.888C97.3864 11.296 96.8584 12.56 96.1224 13.68L97.7064 15.024L94.8024 18.312L93.0264 16.776C91.3624 17.848 89.4904 18.384 87.4104 18.384C86.0824 18.384 84.8824 18.176 83.8104 17.76C82.7544 17.328 81.9224 16.744 81.3144 16.008C80.7064 15.272 80.4024 14.44 80.4024 13.512C80.4024 12.456 80.6664 11.544 81.1944 10.776C81.7224 9.992 82.5464 9.288 83.6664 8.664C82.7064 7.64 82.2264 6.568 82.2264 5.448C82.2264 4.552 82.4744 3.768 82.9704 3.096C83.4824 2.408 84.1944 1.872 85.1064 1.488C86.0184 1.104 87.0744 0.912 88.2744 0.912C89.3784 0.912 90.3464 1.088 91.1784 1.44C92.0264 1.776 92.6824 2.272 93.1464 2.928C93.6104 3.568 93.8424 4.312 93.8424 5.16C93.8424 6.008 93.6024 6.768 93.1224 7.44C92.6584 8.096 91.9304 8.704 90.9384 9.264L92.7144 10.776C93.0024 10.136 93.2184 9.408 93.3624 8.592L97.7064 9.888ZM88.2984 4.416C87.9304 4.416 87.6424 4.504 87.4344 4.68C87.2424 4.856 87.1464 5.088 87.1464 5.376C87.1464 5.584 87.2024 5.784 87.3144 5.976C87.4424 6.168 87.6664 6.416 87.9864 6.72C88.8664 6.24 89.3064 5.76 89.3064 5.28C89.3064 5.024 89.2184 4.816 89.0424 4.656C88.8664 4.496 88.6184 4.416 88.2984 4.416ZM87.8184 14.352C88.4584 14.352 89.0904 14.216 89.7144 13.944L86.6424 11.304C86.0184 11.752 85.7064 12.288 85.7064 12.912C85.7064 13.328 85.8904 13.672 86.2584 13.944C86.6424 14.216 87.1624 14.352 87.8184 14.352ZM168.026 18L167.978 10.344L164.33 16.488H161.834L158.186 10.608V18H153.026V1.2H157.682L163.154 10.152L168.482 1.2H173.138L173.186 18H168.026ZM190.613 13.728V18H176.645V1.2H190.301V5.472H182.213V7.44H189.317V11.52H182.213V13.728H190.613Z" fill="#152930"/>
<path d="M114.491 13.728V18H100.523V1.2H114.179V5.472H106.091V7.44H113.195V11.52H106.091V13.728H114.491ZM128.839 15.072H122.455L121.327 18H115.567L122.911 1.2H128.479L135.823 18H129.967L128.839 15.072ZM127.279 10.992L125.647 6.768L124.015 10.992H127.279ZM140.251 5.592H135.331V1.2H150.835V5.592H145.915V18H140.251V5.592Z" fill="#FF795B"/>
</svg>
